<svg width="512" height="512" viewBox="0 0 512 512" fill="none" xmlns="http://www.w3.org/2000/svg">
<path d="M202 40H76C56.1177 40 40 56.1177 40 76V202C40 221.882 56.1177 238 76 238H202C221.882 238 238 221.882 238 202V76C238 56.1177 221.882 40 202 40Z" fill="#13171C"/>
<path d="M436 40H310C290.118 40 274 56.1177 274 76V202C274 221.882 290.118 238 310 238H436C455.882 238 472 221.882 472 202V76C472 56.1177 455.882 40 436 40Z" fill="#E1E5EA"/>
<path d="M202 274H76C56.1177 274 40 290.118 40 310V436C40 455.882 56.1177 472 76 472H202C221.882 472 238 455.882 238 436V310C238 290.118 221.882 274 202 274Z" fill="#E1E5EA"/>
<path d="M373 472C427.676 472 472 427.676 472 373C472 318.324 427.676 274 373 274C318.324 274 274 318.324 274 373C274 427.676 318.324 472 373 472Z" fill="#00BB94"/>
</svg>
