<svg width="2012" height="512" viewBox="0 0 2012 512" fill="none" xmlns="http://www.w3.org/2000/svg">
<rect width="2012" height="512" fill="white"/>
<path d="M202 40H76C56.1177 40 40 56.1177 40 76V202C40 221.882 56.1177 238 76 238H202C221.882 238 238 221.882 238 202V76C238 56.1177 221.882 40 202 40Z" fill="#13171C"/>
<path d="M436 40H310C290.118 40 274 56.1177 274 76V202C274 221.882 290.118 238 310 238H436C455.882 238 472 221.882 472 202V76C472 56.1177 455.882 40 436 40Z" fill="#E1E5EA"/>
<path d="M202 274H76C56.1177 274 40 290.118 40 310V436C40 455.882 56.1177 472 76 472H202C221.882 472 238 455.882 238 436V310C238 290.118 221.882 274 202 274Z" fill="#E1E5EA"/>
<path d="M373 472C427.676 472 472 427.676 472 373C472 318.324 427.676 274 373 274C318.324 274 274 318.324 274 373C274 427.676 318.324 472 373 472Z" fill="#00BB94"/>
<path d="M596.367 291.82V263.914H651.289C665.638 263.914 676.771 260.203 684.688 252.781C692.703 245.26 696.711 234.87 696.711 221.609V221.312C696.711 207.854 692.703 197.414 684.688 189.992C676.771 182.57 665.638 178.859 651.289 178.859H596.367V150.805H659.602C673.654 150.805 685.974 153.773 696.562 159.711C707.25 165.549 715.612 173.763 721.648 184.352C727.685 194.841 730.703 207.062 730.703 221.016V221.312C730.703 235.266 727.685 247.586 721.648 258.273C715.612 268.862 707.25 277.125 696.562 283.062C685.974 288.901 673.654 291.82 659.602 291.82H596.367ZM579.742 365V150.805H612.992V365H579.742ZM759.945 365V150.805H798.391L867.711 321.656H868.602L937.922 150.805H976.516V365H946.086V207.062H930.797L965.531 156.742L880.477 365H855.836L770.93 156.742L805.664 207.062H790.375V365H759.945ZM1130.59 365V179.602H1065.13V150.805H1229.45V179.602H1163.99V365H1130.59ZM1281.7 368.117C1266.76 368.117 1253.7 364.852 1242.52 358.32C1231.43 351.69 1222.82 342.339 1216.69 330.266C1210.55 318.094 1207.48 303.646 1207.48 286.922V286.625C1207.48 270 1210.55 255.651 1216.69 243.578C1222.92 231.505 1231.58 222.203 1242.66 215.672C1253.85 209.141 1266.81 205.875 1281.55 205.875C1296.4 205.875 1309.36 209.141 1320.45 215.672C1331.63 222.104 1340.29 231.357 1346.42 243.43C1352.66 255.503 1355.77 269.901 1355.77 286.625V286.922C1355.77 303.745 1352.66 318.193 1346.42 330.266C1340.29 342.339 1331.68 351.69 1320.59 358.32C1309.51 364.852 1296.55 368.117 1281.7 368.117ZM1281.85 341.102C1290.16 341.102 1297.39 338.974 1303.52 334.719C1309.66 330.464 1314.41 324.328 1317.77 316.312C1321.14 308.198 1322.82 298.401 1322.82 286.922V286.625C1322.82 275.245 1321.14 265.547 1317.77 257.531C1314.41 249.417 1309.61 243.281 1303.38 239.125C1297.14 234.87 1289.87 232.742 1281.55 232.742C1273.34 232.742 1266.12 234.87 1259.88 239.125C1253.75 243.38 1248.95 249.516 1245.48 257.531C1242.02 265.547 1240.29 275.245 1240.29 286.625V286.922C1240.29 298.401 1241.97 308.198 1245.34 316.312C1248.8 324.328 1253.65 330.464 1259.88 334.719C1266.12 338.974 1273.44 341.102 1281.85 341.102ZM1447.95 368.117C1433.01 368.117 1419.95 364.852 1408.77 358.32C1397.68 351.69 1389.07 342.339 1382.94 330.266C1376.8 318.094 1373.73 303.646 1373.73 286.922V286.625C1373.73 270 1376.8 255.651 1382.94 243.578C1389.17 231.505 1397.83 222.203 1408.91 215.672C1420.1 209.141 1433.06 205.875 1447.8 205.875C1462.65 205.875 1475.61 209.141 1486.7 215.672C1497.88 222.104 1506.54 231.357 1512.67 243.43C1518.91 255.503 1522.02 269.901 1522.02 286.625V286.922C1522.02 303.745 1518.91 318.193 1512.67 330.266C1506.54 342.339 1497.93 351.69 1486.84 358.32C1475.76 364.852 1462.8 368.117 1447.95 368.117ZM1448.1 341.102C1456.41 341.102 1463.64 338.974 1469.77 334.719C1475.91 330.464 1480.66 324.328 1484.02 316.312C1487.39 308.198 1489.07 298.401 1489.07 286.922V286.625C1489.07 275.245 1487.39 265.547 1484.02 257.531C1480.66 249.417 1475.86 243.281 1469.62 239.125C1463.39 234.87 1456.12 232.742 1447.8 232.742C1439.59 232.742 1432.37 234.87 1426.13 239.125C1420 243.38 1415.2 249.516 1411.73 257.531C1408.27 265.547 1406.54 275.245 1406.54 286.625V286.922C1406.54 298.401 1408.22 308.198 1411.59 316.312C1415.05 324.328 1419.9 330.464 1426.13 334.719C1432.37 338.974 1439.69 341.102 1448.1 341.102ZM1548.15 365V150.805H1580.36V365H1548.15ZM1615.24 365V150.805H1647.45V365H1615.24ZM1713.66 365L1658.44 292.562L1679.37 269.555L1750.91 365H1713.66ZM1641.81 314.383V275.344H1648.2L1710.69 208.844H1748.54L1675.36 285.734H1670.46L1641.81 314.383ZM1768.13 365V208.844H1800.49V365H1768.13ZM1784.31 184.797C1779.17 184.797 1774.76 183.016 1771.1 179.453C1767.44 175.792 1765.61 171.438 1765.61 166.391C1765.61 161.146 1767.44 156.742 1771.1 153.18C1774.76 149.617 1779.17 147.836 1784.31 147.836C1789.56 147.836 1793.96 149.617 1797.52 153.18C1801.18 156.742 1803.02 161.146 1803.02 166.391C1803.02 171.438 1801.18 175.792 1797.52 179.453C1793.96 183.016 1789.56 184.797 1784.31 184.797ZM1888.37 368.117C1872.93 368.117 1861.4 364.654 1853.78 357.727C1846.26 350.701 1842.5 339.37 1842.5 323.734V234.375H1820.09V208.844H1842.5V168.172H1875.45V208.844H1904.7V234.375H1875.45V321.953C1875.45 329.87 1877.18 335.312 1880.65 338.281C1884.11 341.151 1889.26 342.586 1896.09 342.586C1897.77 342.586 1899.3 342.536 1900.69 342.438C1902.17 342.24 1903.51 342.091 1904.7 341.992V366.781C1902.82 367.078 1900.44 367.375 1897.57 367.672C1894.7 367.969 1891.63 368.117 1888.37 368.117Z" fill="#13171C"/>
</svg>
