<svg width="760" height="128" viewBox="0 0 760 128" fill="none" xmlns="http://www.w3.org/2000/svg">
<path d="M31.0303 76.4121V32.9697C31.0303 29.5422 33.8088 26.7637 37.2363 26.7637C40.6639 26.7637 43.4424 29.5422 43.4424 32.9697V76.4121C43.4424 79.8396 40.6639 82.6182 37.2363 82.6182C33.8088 82.6182 31.0303 79.8396 31.0303 76.4121Z" fill="#F5F5F5"/>
<path d="M55.8545 57.794V32.9697C55.8545 29.5422 58.633 26.7637 62.0606 26.7637C65.4881 26.7637 68.2666 29.5422 68.2666 32.9697V57.794C68.2666 61.2215 65.4881 64 62.0606 64C58.633 64 55.8545 61.2215 55.8545 57.794Z" fill="#F5F5F5"/>
<path d="M80.6797 51.3293V31.6768C80.6797 28.9634 83.4582 26.7637 86.8858 26.7637C90.3133 26.7637 93.0918 28.9634 93.0918 31.6768V51.3293C93.0918 54.0428 90.3133 56.2424 86.8858 56.2424C83.4582 56.2424 80.6797 54.0428 80.6797 51.3293Z" fill="#F5F5F5" fill-opacity="0.4"/>
<path d="M80.6797 88.8242V33.0848C80.6797 29.6573 83.4582 26.8788 86.8858 26.8788C90.3133 26.8788 93.0918 29.6573 93.0918 33.0848V88.8242C93.0918 92.2517 90.3133 95.0303 86.8858 95.0303C83.4582 95.0303 80.6797 92.2517 80.6797 88.8242Z" fill="#F5F5F5"/>
<path d="M0 18.6182C0 13.6803 1.96296 8.94613 5.45455 5.45454C8.94615 1.96296 13.6804 0 18.6182 0C22.0457 0 24.8243 2.77855 24.8243 6.20606C24.8243 9.63357 22.0457 12.4121 18.6182 12.4121C16.9723 12.4121 15.3942 13.0664 14.2303 14.2303C13.0665 15.3942 12.4121 16.9722 12.4121 18.6182C12.4121 22.0457 9.63359 24.8242 6.20607 24.8242C2.77855 24.8242 0 22.0457 0 18.6182Z" fill="#F5F5F5" fill-opacity="0.4"/>
<path d="M49.6485 0C53.076 0 55.8545 2.77855 55.8545 6.20606C55.8545 9.63357 53.076 12.4121 49.6485 12.4121H43.4424C40.0149 12.4121 37.2363 9.63357 37.2363 6.20606C37.2363 2.77855 40.0149 0 43.4424 0H49.6485Z" fill="#F5F5F5" fill-opacity="0.4"/>
<path d="M80.6787 0C84.1063 0 86.8848 2.77855 86.8848 6.20606C86.8848 9.63357 84.1063 12.4121 80.6787 12.4121H74.4727C71.0452 12.4121 68.2666 9.63357 68.2666 6.20606C68.2666 2.77855 71.0452 0 74.4727 0H80.6787Z" fill="#F5F5F5" fill-opacity="0.4"/>
<path d="M111.709 18.6182C111.709 16.9722 111.055 15.3942 109.891 14.2303C108.727 13.0664 107.149 12.4121 105.503 12.4121C102.075 12.4121 99.2969 9.63357 99.2969 6.20606C99.2969 2.77855 102.075 0 105.503 0C110.441 0 115.175 1.96296 118.667 5.45454C122.158 8.94613 124.121 13.6803 124.121 18.6182C124.121 22.0457 121.343 24.8242 117.915 24.8242C114.488 24.8242 111.709 22.0457 111.709 18.6182Z" fill="#F5F5F5" fill-opacity="0.4"/>
<path d="M111.709 51.5878V45.3817C111.709 41.9542 114.488 39.1757 117.915 39.1757C121.343 39.1757 124.121 41.9542 124.121 45.3817V51.5878C124.121 55.0153 121.343 57.7938 117.915 57.7938C114.488 57.7938 111.709 55.0153 111.709 51.5878Z" fill="#F5F5F5" fill-opacity="0.4"/>
<path d="M111.709 82.6182V76.4121C111.709 72.9846 114.488 70.2061 117.915 70.2061C121.343 70.2061 124.121 72.9846 124.121 76.4121V82.6182C124.121 86.0457 121.343 88.8242 117.915 88.8242C114.488 88.8242 111.709 86.0457 111.709 82.6182Z" fill="#F5F5F5" fill-opacity="0.4"/>
<path d="M111.709 109.382C111.709 105.954 114.488 103.176 117.915 103.176C121.343 103.176 124.121 105.954 124.121 109.382C124.121 114.32 122.158 119.054 118.667 122.545C115.175 126.037 110.441 128 105.503 128C102.075 128 99.2969 125.221 99.2969 121.794C99.2969 118.366 102.075 115.588 105.503 115.588C107.149 115.588 108.727 114.934 109.891 113.77C111.055 112.606 111.709 111.028 111.709 109.382Z" fill="#F5F5F5" fill-opacity="0.4"/>
<path d="M80.6787 115.588C84.1063 115.588 86.8848 118.366 86.8848 121.794C86.8848 125.221 84.1063 128 80.6787 128H74.4727C71.0452 128 68.2666 125.221 68.2666 121.794C68.2666 118.366 71.0452 115.588 74.4727 115.588H80.6787Z" fill="#F5F5F5" fill-opacity="0.4"/>
<path d="M49.6485 115.588C53.076 115.588 55.8545 118.366 55.8545 121.794C55.8545 125.221 53.076 128 49.6485 128H43.4424C40.0149 128 37.2363 125.221 37.2363 121.794C37.2363 118.366 40.0149 115.588 43.4424 115.588H49.6485Z" fill="#F5F5F5" fill-opacity="0.4"/>
<path d="M0 109.382C0 105.954 2.77855 103.176 6.20607 103.176C9.63359 103.176 12.4121 105.954 12.4121 109.382C12.4121 111.028 13.0665 112.606 14.2303 113.77C15.3942 114.934 16.9723 115.588 18.6182 115.588C22.0457 115.588 24.8243 118.366 24.8243 121.794C24.8243 125.221 22.0457 128 18.6182 128C13.6804 128 8.94614 126.037 5.45455 122.545C1.96296 119.054 0 114.32 0 109.382Z" fill="#F5F5F5" fill-opacity="0.4"/>
<path d="M0 82.6182V76.4121C0 72.9846 2.77855 70.2061 6.20607 70.2061C9.63359 70.2061 12.4121 72.9846 12.4121 76.4121V82.6182C12.4121 86.0457 9.63359 88.8242 6.20607 88.8242C2.77855 88.8242 0 86.0457 0 82.6182Z" fill="#F5F5F5" fill-opacity="0.4"/>
<path d="M0 51.5878V45.3817C0 41.9542 2.77855 39.1757 6.20607 39.1757C9.63359 39.1757 12.4121 41.9542 12.4121 45.3817V51.5878C12.4121 55.0153 9.63359 57.7938 6.20607 57.7938C2.77855 57.7938 0 55.0153 0 51.5878Z" fill="#F5F5F5" fill-opacity="0.4"/>
<path d="M732.112 99.5078C727.847 99.5078 725.257 96.7656 725.257 92.1953V41.2109H710.581C707.179 41.2109 704.69 38.7734 704.69 35.4727C704.69 32.1211 707.179 29.6836 710.581 29.6836H753.694C757.147 29.6836 759.585 32.0703 759.585 35.4727C759.585 38.8242 757.147 41.2109 753.694 41.2109H738.968V92.1953C738.968 96.7148 736.327 99.5078 732.112 99.5078Z" fill="#F5F5F5"/>
<path d="M686.464 99.5078C682.097 99.5078 679.558 96.7656 679.558 92.0938V36.5898C679.558 31.918 682.046 29.1758 686.413 29.1758C690.729 29.1758 693.269 31.918 693.269 36.5898V92.0938C693.269 96.7656 690.78 99.5078 686.464 99.5078Z" fill="#F5F5F5"/>
<path d="M658.183 99.3047C655.593 99.3047 653.409 97.9336 651.124 94.7852L632.538 68.8359L625.226 76.3516V92.0938C625.226 96.8164 622.788 99.5078 618.472 99.5078C614.104 99.5078 611.515 96.7656 611.515 92.0938V36.5898C611.515 31.918 614.003 29.1758 618.37 29.1758C622.687 29.1758 625.226 31.918 625.226 36.5898V60.0508H625.987L651.479 32.6289C653.562 30.293 655.237 29.3789 657.218 29.3789C660.671 29.3789 663.312 32.0195 663.312 35.3711C663.312 37.1484 662.651 38.418 660.468 40.7539L642.745 60L661.788 86.0508C664.276 89.4023 664.886 90.8242 664.886 92.7539C664.886 96.6133 662.144 99.3047 658.183 99.3047Z" fill="#F5F5F5"/>
<path d="M599.28 93.1602C599.28 96.6641 596.741 99 593.136 99H564.495C558.351 99 555.354 96.1055 555.354 90.2148V36.5898C555.354 31.918 557.843 29.1758 562.21 29.1758C566.526 29.1758 569.065 31.918 569.065 36.5898V87.3203H593.136C596.741 87.3203 599.28 89.707 599.28 93.1602Z" fill="#F5F5F5"/>
<path d="M480.101 69.1914V60.1523C480.101 40.3984 491.171 28.3633 509.554 28.3633C528.038 28.3633 539.007 40.3984 539.007 60.1523V69.1914C539.007 88.6914 528.038 100.473 509.554 100.473C490.968 100.473 480.101 88.6914 480.101 69.1914ZM493.812 60.1016V69.1406C493.812 81.6328 499.753 88.9961 509.554 88.9961C519.354 88.9961 525.296 81.6328 525.296 69.1406V60.1016C525.296 47.457 519.354 39.8398 509.554 39.8398C499.753 39.8398 493.812 47.457 493.812 60.1016Z" fill="#F5F5F5"/>
<path d="M407.386 69.1914V60.1523C407.386 40.3984 418.456 28.3633 436.839 28.3633C455.323 28.3633 466.292 40.3984 466.292 60.1523V69.1914C466.292 88.6914 455.323 100.473 436.839 100.473C418.253 100.473 407.386 88.6914 407.386 69.1914ZM421.097 60.1016V69.1406C421.097 81.6328 427.038 88.9961 436.839 88.9961C446.64 88.9961 452.581 81.6328 452.581 69.1406V60.1016C452.581 47.457 446.64 39.8398 436.839 39.8398C427.038 39.8398 421.097 47.457 421.097 60.1016Z" fill="#F5F5F5"/>
<path d="M372.199 99.5078C367.934 99.5078 365.344 96.7656 365.344 92.1953V41.2109H350.668C347.266 41.2109 344.777 38.7734 344.777 35.4727C344.777 32.1211 347.266 29.6836 350.668 29.6836H393.781C397.234 29.6836 399.672 32.0703 399.672 35.4727C399.672 38.8242 397.234 41.2109 393.781 41.2109H379.055V92.1953C379.055 96.7148 376.414 99.5078 372.199 99.5078Z" fill="#F5F5F5"/>
<path d="M311.316 70.5625C311.316 66.957 313.805 64.6211 318.172 64.6211H339.805C344.172 64.6211 346.609 66.957 346.609 70.5117C346.609 74.1172 344.172 76.5039 339.805 76.5039H318.172C313.754 76.5039 311.316 74.1172 311.316 70.5625Z" fill="#F5F5F5"/>
<path d="M235.656 99.5078C231.645 99.5078 229.562 97.0195 229.562 92.2461V37.9609C229.562 32.4258 232.66 29.0742 237.586 29.0742C242.004 29.0742 244.594 31.1562 246.98 37.4023L263.281 77.7227H263.789L280.039 37.3516C282.426 31.0547 284.965 29.0742 289.484 29.0742C294.512 29.0742 297.406 32.3242 297.406 37.9609V92.2461C297.406 96.918 295.172 99.5078 291.16 99.5078C287.199 99.5078 285.117 97.0195 285.117 92.2461V52.8906H284.66L270.594 87.3711C268.715 92.1445 266.633 93.668 263.535 93.668C260.387 93.668 258.305 92.043 256.426 87.3711L242.359 52.8906H241.902V92.2461C241.902 96.918 239.668 99.5078 235.656 99.5078Z" fill="#F5F5F5"/>
<path d="M171.168 99.5078C166.852 99.5078 164.363 96.7656 164.363 92.0938V39.6875C164.363 32.4766 167.105 29.6836 174.266 29.6836H191.785C206.207 29.6836 215.5 38.7227 215.5 52.4336C215.5 66.7539 206.105 75.2344 191.227 75.2344H178.074V92.0938C178.074 96.7656 175.535 99.5078 171.168 99.5078ZM178.074 64.5703H186.859C197.523 64.5703 201.84 61.4727 201.84 52.6367C201.84 45.0195 197.574 40.6523 190.059 40.6523H178.074V64.5703Z" fill="#F5F5F5"/>
</svg>
