<svg width="661" height="822" viewBox="0 0 661 822" fill="none" xmlns="http://www.w3.org/2000/svg">
<path d="M175.152 382.061V164.848C175.152 147.711 189.045 133.818 206.183 133.818C223.32 133.818 237.213 147.711 237.213 164.848V382.061C237.213 399.198 223.32 413.091 206.183 413.091C189.045 413.091 175.152 399.198 175.152 382.061Z" fill="#3D74EE"/>
<path d="M299.273 288.97V164.848C299.273 147.711 313.166 133.818 330.304 133.818C347.441 133.818 361.334 147.711 361.334 164.848V288.97C361.334 306.107 347.441 320 330.304 320C313.166 320 299.273 306.107 299.273 288.97Z" fill="#3D74EE"/>
<path d="M423.395 256.646V158.384C423.395 144.817 437.287 133.818 454.425 133.818C471.562 133.818 485.455 144.817 485.455 158.384V256.646C485.455 270.214 471.562 281.212 454.425 281.212C437.287 281.212 423.395 270.214 423.395 256.646Z" fill="#3D74EE"/>
<path d="M423.395 444.121V165.424C423.395 148.287 437.287 134.394 454.425 134.394C471.562 134.394 485.455 148.287 485.455 165.424V444.121C485.455 461.259 471.562 475.151 454.425 475.151C437.287 475.151 423.395 461.259 423.395 444.121Z" fill="#3D74EE"/>
<path d="M20 93.0909C20 68.4017 29.8148 44.7307 47.2727 27.2727C64.7307 9.81479 88.4017 0 113.091 0C130.229 0 144.121 13.8927 144.121 31.0303C144.121 48.1679 130.229 62.0606 113.091 62.0606C104.861 62.0606 96.9709 65.3322 91.1515 71.1515C85.3322 76.9708 82.0606 84.8611 82.0606 93.0909C82.0606 110.228 68.1679 124.121 51.0303 124.121C33.8927 124.121 20 110.228 20 93.0909Z" fill="#3D74EE"/>
<path d="M268.242 0C285.38 0 299.273 13.8927 299.273 31.0303C299.273 48.1679 285.38 62.0606 268.242 62.0606H237.212C220.074 62.0606 206.182 48.1679 206.182 31.0303C206.182 13.8927 220.074 0 237.212 0H268.242Z" fill="#3D74EE"/>
<path d="M423.395 0C440.532 0 454.425 13.8927 454.425 31.0303C454.425 48.1679 440.532 62.0606 423.395 62.0606H392.364C375.227 62.0606 361.334 48.1679 361.334 31.0303C361.334 13.8927 375.227 0 392.364 0H423.395Z" fill="#3D74EE"/>
<path d="M578.545 93.0909C578.545 84.8612 575.273 76.9708 569.454 71.1515C563.635 65.3322 555.744 62.0606 547.515 62.0606C530.377 62.0606 516.484 48.1679 516.484 31.0303C516.484 13.8927 530.377 0 547.515 0C572.204 0 595.875 9.8148 613.333 27.2727C630.791 44.7306 640.606 68.4016 640.606 93.0909C640.606 110.228 626.713 124.121 609.575 124.121C592.438 124.121 578.545 110.228 578.545 93.0909Z" fill="#3D74EE"/>
<path d="M578.545 257.939V226.909C578.545 209.772 592.438 195.879 609.575 195.879C626.713 195.879 640.606 209.772 640.606 226.909V257.939C640.606 275.077 626.713 288.97 609.575 288.97C592.438 288.97 578.545 275.077 578.545 257.939Z" fill="#3D74EE"/>
<path d="M578.545 413.091V382.061C578.545 364.923 592.438 351.03 609.575 351.03C626.713 351.03 640.606 364.923 640.606 382.061V413.091C640.606 430.228 626.713 444.121 609.575 444.121C592.438 444.121 578.545 430.228 578.545 413.091Z" fill="#3D74EE"/>
<path d="M578.545 546.909C578.545 529.772 592.438 515.879 609.575 515.879C626.713 515.879 640.606 529.772 640.606 546.909C640.606 571.598 630.791 595.269 613.333 612.727C595.875 630.185 572.204 640 547.515 640C530.377 640 516.484 626.107 516.484 608.97C516.484 591.832 530.377 577.939 547.515 577.939C555.744 577.939 563.635 574.668 569.454 568.848C575.273 563.029 578.545 555.139 578.545 546.909Z" fill="#3D74EE"/>
<path d="M423.395 577.939C440.532 577.939 454.425 591.832 454.425 608.97C454.425 626.107 440.532 640 423.395 640H392.364C375.227 640 361.334 626.107 361.334 608.97C361.334 591.832 375.227 577.939 392.364 577.939H423.395Z" fill="#3D74EE"/>
<path d="M268.242 577.939C285.38 577.939 299.273 591.832 299.273 608.97C299.273 626.107 285.38 640 268.242 640H237.212C220.074 640 206.182 626.107 206.182 608.97C206.182 591.832 220.074 577.939 237.212 577.939H268.242Z" fill="#3D74EE"/>
<path d="M20 546.909C20 529.772 33.8927 515.879 51.0303 515.879C68.1679 515.879 82.0606 529.772 82.0606 546.909C82.0606 555.139 85.3322 563.029 91.1515 568.848C96.9709 574.668 104.861 577.939 113.091 577.939C130.229 577.939 144.121 591.832 144.121 608.97C144.121 626.107 130.229 640 113.091 640C88.4017 640 64.7307 630.185 47.2727 612.727C29.8148 595.269 20 571.598 20 546.909Z" fill="#3D74EE"/>
<path d="M20 413.091V382.061C20 364.923 33.8927 351.03 51.0303 351.03C68.1679 351.03 82.0606 364.923 82.0606 382.061V413.091C82.0606 430.228 68.1679 444.121 51.0303 444.121C33.8927 444.121 20 430.228 20 413.091Z" fill="#3D74EE"/>
<path d="M20 257.939V226.909C20 209.772 33.8927 195.879 51.0303 195.879C68.1679 195.879 82.0606 209.772 82.0606 226.909V257.939C82.0606 275.077 68.1679 288.97 51.0303 288.97C33.8927 288.97 20 275.077 20 257.939Z" fill="#3D74EE"/>
<path d="M629.875 820.293C625.142 820.293 622.269 817.251 622.269 812.18V755.617H605.987C602.213 755.617 599.452 752.913 599.452 749.251C599.452 745.532 602.213 742.828 605.987 742.828H653.818C657.649 742.828 660.354 745.476 660.354 749.251C660.354 752.969 657.649 755.617 653.818 755.617H637.48V812.18C637.48 817.194 634.551 820.293 629.875 820.293Z" fill="#3D74EE"/>
<path d="M579.232 820.293C574.387 820.293 571.57 817.251 571.57 812.068V750.49C571.57 745.307 574.331 742.265 579.176 742.265C583.965 742.265 586.782 745.307 586.782 750.49V812.068C586.782 817.251 584.021 820.293 579.232 820.293Z" fill="#3D74EE"/>
<path d="M547.856 820.068C544.983 820.068 542.56 818.547 540.025 815.054L519.405 786.265L511.292 794.603V812.068C511.292 817.307 508.588 820.293 503.799 820.293C498.954 820.293 496.081 817.251 496.081 812.068V750.49C496.081 745.307 498.842 742.265 503.687 742.265C508.475 742.265 511.292 745.307 511.292 750.49V776.518H512.137L540.419 746.096C542.729 743.504 544.588 742.49 546.785 742.49C550.616 742.49 553.546 745.42 553.546 749.138C553.546 751.11 552.814 752.518 550.391 755.11L530.729 776.462L551.856 805.363C554.616 809.082 555.292 810.659 555.292 812.8C555.292 817.082 552.25 820.068 547.856 820.068Z" fill="#3D74EE"/>
<path d="M482.509 813.251C482.509 817.138 479.692 819.73 475.692 819.73H443.917C437.1 819.73 433.776 816.518 433.776 809.983V750.49C433.776 745.307 436.537 742.265 441.382 742.265C446.171 742.265 448.988 745.307 448.988 750.49V806.772H475.692C479.692 806.772 482.509 809.42 482.509 813.251Z" fill="#3D74EE"/>
<path d="M350.286 786.659V776.631C350.286 754.715 362.568 741.363 382.962 741.363C403.469 741.363 415.638 754.715 415.638 776.631V786.659C415.638 808.293 403.469 821.363 382.962 821.363C362.342 821.363 350.286 808.293 350.286 786.659ZM365.497 776.575V786.603C365.497 800.462 372.089 808.631 382.962 808.631C393.836 808.631 400.427 800.462 400.427 786.603V776.575C400.427 762.546 393.836 754.096 382.962 754.096C372.089 754.096 365.497 762.546 365.497 776.575Z" fill="#3D74EE"/>
<path d="M269.616 786.659V776.631C269.616 754.715 281.898 741.363 302.292 741.363C322.799 741.363 334.968 754.715 334.968 776.631V786.659C334.968 808.293 322.799 821.363 302.292 821.363C281.673 821.363 269.616 808.293 269.616 786.659ZM284.828 776.575V786.603C284.828 800.462 291.419 808.631 302.292 808.631C313.166 808.631 319.757 800.462 319.757 786.603V776.575C319.757 762.546 313.166 754.096 302.292 754.096C291.419 754.096 284.828 762.546 284.828 776.575Z" fill="#3D74EE"/>
<path d="M230.579 820.293C225.846 820.293 222.973 817.251 222.973 812.18V755.617H206.691C202.917 755.617 200.156 752.913 200.156 749.251C200.156 745.532 202.917 742.828 206.691 742.828H254.523C258.354 742.828 261.058 745.476 261.058 749.251C261.058 752.969 258.354 755.617 254.523 755.617H238.185V812.18C238.185 817.194 235.255 820.293 230.579 820.293Z" fill="#3D74EE"/>
<path d="M163.032 788.18C163.032 784.18 165.793 781.589 170.638 781.589H194.638C199.483 781.589 202.187 784.18 202.187 788.124C202.187 792.124 199.483 794.772 194.638 794.772H170.638C165.736 794.772 163.032 792.124 163.032 788.18Z" fill="#3D74EE"/>
<path d="M79.0946 820.293C74.6438 820.293 72.334 817.532 72.334 812.236V752.011C72.334 745.87 75.7706 742.152 81.2354 742.152C86.1368 742.152 89.0101 744.462 91.658 751.391L109.743 796.124H110.306L128.334 751.335C130.982 744.349 133.799 742.152 138.813 742.152C144.39 742.152 147.602 745.757 147.602 752.011V812.236C147.602 817.419 145.123 820.293 140.672 820.293C136.278 820.293 133.968 817.532 133.968 812.236V768.574H133.461L117.855 806.828C115.771 812.124 113.461 813.814 110.024 813.814C106.531 813.814 104.221 812.011 102.137 806.828L86.5312 768.574H86.0242V812.236C86.0242 817.419 83.5453 820.293 79.0946 820.293Z" fill="#3D74EE"/>
<path d="M7.54931 820.293C2.76057 820.293 0 817.251 0 812.068V753.927C0 745.927 3.04226 742.828 10.9859 742.828H30.4226C46.4226 742.828 56.7325 752.856 56.7325 768.068C56.7325 783.955 46.31 793.363 29.8029 793.363H15.2113V812.068C15.2113 817.251 12.3944 820.293 7.54931 820.293ZM15.2113 781.532H24.9578C36.7888 781.532 41.5776 778.096 41.5776 768.293C41.5776 759.842 36.8452 754.997 28.5071 754.997H15.2113V781.532Z" fill="#3D74EE"/>
</svg>
